# xmcd
#
# Track frame offsets:
#	150
#	12675
#	23655
#	38250
#	52092
#	62752
#	72862
#	83635
#	92780
#	111800
#	123992
#	136955
#
# Disc length: 2089 seconds
#
# Revision: 0
# Processed by: cddbd v1.5.1PL2 Copyright (c) Steve Scherf et al.
# Submitted via: dBpowerAMP V4.0
#
DISCID=9908270c
DTITLE=Earl Brothers - Troubles To Blame
DYEAR=2006
DGENRE=Bluegrass
TTITLE0=Hard Times and Heartbreaks
TTITLE1=Another Broken Hearted Fool
TTITLE2=Leak's Bounce
TTITLE3=Rattlesnake Poison
TTITLE4=Old Gun Road
TTITLE5=Dreadful Day
TTITLE6=O Poor Betty
TTITLE7=Don't Play The Jukebox
TTITLE8=Hillbilly Hero
TTITLE9=Girl With The Long Black Hair
TTITLE10=Too Many Women Too Little Time
TTITLE11=Oh Death Is Calling Me
EXTD=
EXTT0=
EXTT1=
EXTT2=
EXTT3=
EXTT4=
EXTT5=
EXTT6=
EXTT7=
EXTT8=
EXTT9=
EXTT10=
EXTT11=
PLAYORDER=
